<svg xmlns="http://www.w3.org/2000/svg" data-name="Your Icon" viewBox="0 0 100 100" x="0px" y="0px">
<path d="m18.53,51.71l2.95,6.84c.23.54,1,.55,1.24,0l3.04-6.96c.74-1.69,2.08-3.03,3.77-3.77l6.97-3.04c.54-.24.54-1,0-1.24l-6.97-3.04c-1.69-.74-3.03-2.08-3.77-3.77l-3.04-6.97c-.24-.54-1-.54-1.24,0l-3.04,6.97c-.74,1.69-2.08,3.03-3.77,3.77l-6.98,3.05c-.54.24-.54,1,0,1.24l7.11,3.14c1.68.74,3.02,2.1,3.75,3.78Z"/>
<path d="m29.25,17.84l3.77,1.67c.89.39,1.6,1.11,1.99,2.01l1.56,3.63c.12.29.53.29.66,0l1.61-3.7c.39-.89,1.1-1.61,2-2l3.7-1.62c.29-.13.29-.53,0-.66l-3.7-1.62c-.89-.39-1.61-1.1-2-2l-1.62-3.7c-.13-.29-.53-.29-.66,0l-1.62,3.7c-.39.89-1.1,1.61-2,2l-3.71,1.62c-.29.12-.29.53,0,.66Z"/>
<path d="m84.44,68.79l-4.83-2.11c-1.17-.51-2.1-1.44-2.61-2.61l-2.11-4.83c-.16-.37-.69-.37-.86,0l-2.11,4.83c-.51,1.17-1.44,2.1-2.61,2.61l-4.84,2.11c-.37.16-.37.69,0,.86l4.92,2.18c1.17.52,2.09,1.45,2.6,2.62l2.04,4.74c.16.38.7.38.86,0l2.11-4.82c.51-1.17,1.44-2.1,2.61-2.61l4.83-2.11c.37-.16.37-.69,0-.86Z"/>
<path d="m91.97,41.27l-7.02-9.41,3.77-11.1c.46-1.38.11-2.88-.91-3.91-1.03-1.02-2.52-1.38-3.9-.9l-11.12,3.76-9.39-7.01c-1.18-.88-2.7-1.01-4-.35-1.29.67-2.08,1.97-2.06,3.43l.15,11.73-9.58,6.78c-1.19.84-1.79,2.25-1.56,3.69.23,1.43,1.24,2.59,2.62,3.02l7.67,2.4L15.27,84.77c-.62.62-.97,1.44-.97,2.32s.35,1.69.97,2.31c.63.64,1.47.95,2.3.95s1.68-.31,2.32-.95l41.38-41.38,2.38,7.68c.44,1.37,1.6,2.38,3.03,2.61.21.03.4.05.61.05,1.21,0,2.36-.59,3.08-1.61l6.78-9.58,11.73.16c1.5,0,2.76-.78,3.42-2.08.67-1.29.54-2.82-.33-3.98Zm-15.53.62h-.05c-1.24,0-2.38.6-3.09,1.61l-5.5,7.76-2.82-9.09c-.37-1.19-1.3-2.11-2.5-2.49l-9.08-2.82,7.77-5.49c1.01-.71,1.62-1.9,1.59-3.15l-.11-9.5,7.62,5.68c1,.75,2.31.96,3.48.56l9.01-3.06-3.05,9c-.4,1.19-.2,2.49.55,3.5l5.69,7.62-9.51-.13Z"/>
</svg>